<svg width="393" height="852" viewBox="0 0 393 852" fill="none" xmlns="http://www.w3.org/2000/svg">
<g clip-path="url(#clip0_613_2879)">
<rect width="393" height="852" rx="40" fill="#171717"/>
<path d="M126.219 382.604V382.604C236.975 445.9 325.308 542.07 378.982 657.795L392.814 687.618" stroke="url(#paint0_linear_613_2879)" stroke-width="85.05" stroke-linecap="round"/>
<path d="M50.64 98.36H54.96V103.76C54.96 113.28 51.68 121.88 44.32 125.28L41.16 120.88C47.6 118.08 50.64 110.96 50.64 103.76V98.36ZM51.68 98.36H56V103.76C56 110.6 58.92 117.4 65.24 120.12L62.12 124.4C54.96 121.12 51.68 112.88 51.68 103.76V98.36ZM67 95.48H72.36V132.64H67V95.48ZM97.3169 103.4H105.917V107.68H97.3169V103.4ZM86.8769 97.8H91.1569V101.8C91.1569 109.36 87.9969 115.8 80.9969 118.36L78.1969 114.2C84.3169 112.16 86.8769 107.04 86.8769 101.8V97.8ZM88.0369 97.8H92.2769V101.84C92.2769 106.6 94.7169 111.36 100.557 113.36L97.7169 117.44C91.0769 115.04 88.0369 108.84 88.0369 101.84V97.8ZM104.077 95.56H109.397V122.88H104.077V95.56ZM84.8769 127.68H110.197V131.92H84.8769V127.68ZM84.8769 120.12H90.2369V130.04H84.8769V120.12ZM173.92 99.08H179.12C179.12 110.52 176.4 120.04 162.6 127.04L159.76 123C171.28 117.2 173.92 110.12 173.92 99.72V99.08ZM162.04 99.08H177.08V103.28H162.04V99.08ZM174.04 108.16V112.24L160.76 113.52L160.12 108.96L174.04 108.16ZM183.6 95.48H188.96V132.52H183.6V95.48ZM187.56 109.64H194.08V114H187.56V109.64ZM200.637 112.6H226.677V116.84H200.637V112.6ZM196.757 123.76H230.277V128.12H196.757V123.76ZM200.637 98.56H226.397V102.88H205.917V114.36H200.637V98.56Z" fill="#53E7FB"/>
<path d="M115.194 114.4H148.674V118.64H115.194V114.4ZM119.234 127.68H144.914V131.92H119.234V127.68ZM119.234 121.12H124.554V129.04H119.234V121.12ZM131.954 96.6C139.994 96.6 145.354 99.52 145.354 104.24C145.354 108.96 139.994 111.88 131.954 111.88C123.874 111.88 118.554 108.96 118.554 104.24C118.554 99.52 123.874 96.6 131.954 96.6ZM131.954 100.84C126.954 100.84 124.034 102 124.034 104.24C124.034 106.52 126.954 107.64 131.954 107.64C136.954 107.64 139.874 106.52 139.874 104.24C139.874 102 136.954 100.84 131.954 100.84ZM248.314 109.16H254.394V113.44H248.314V109.16ZM260.274 95.52H265.354V132.56H260.274V95.52ZM252.714 96.08H257.714V130.88H252.714V96.08ZM241.834 98.12C246.754 98.12 249.914 103.2 249.914 111.56C249.914 119.96 246.754 125.04 241.834 125.04C236.954 125.04 233.834 119.96 233.834 111.56C233.834 103.2 236.954 98.12 241.834 98.12ZM241.834 103.12C239.834 103.12 238.674 105.92 238.674 111.56C238.674 117.24 239.834 120 241.834 120C243.914 120 245.074 117.24 245.074 111.56C245.074 105.92 243.914 103.12 241.834 103.12ZM45.04 159.64H68.52V163.92H45.04V159.64ZM41.64 184.8H75.12V189.12H41.64V184.8ZM53.48 172.08H58.8V186.92H53.48V172.08ZM66.6 159.64H71.92V163.2C71.92 167.84 71.92 173.04 70.44 180.96L65.12 180.36C66.6 173 66.6 167.64 66.6 163.2V159.64ZM98.4769 165.48H105.517V169.8H98.4769V165.48ZM104.077 156.52H109.397V178.52H104.077V156.52ZM96.8369 179.32C104.677 179.32 109.517 182 109.517 186.48C109.517 191 104.677 193.6 96.8369 193.6C88.9969 193.6 84.1569 191 84.1569 186.48C84.1569 182 88.9969 179.32 96.8369 179.32ZM96.8369 183.36C92.0369 183.36 89.4769 184.36 89.4769 186.48C89.4769 188.56 92.0369 189.56 96.8369 189.56C101.677 189.56 104.237 188.56 104.237 186.48C104.237 184.36 101.677 183.36 96.8369 183.36ZM86.9569 160.24H91.2769V162.56C91.2769 169.64 87.9969 176.12 80.9169 178.52L78.1969 174.32C84.3169 172.24 86.9569 167.32 86.9569 162.56V160.24ZM88.0769 160.24H92.3569V162.56C92.3569 166.92 94.8769 171.44 100.717 173.4L98.1169 177.6C91.2369 175.32 88.0769 169.16 88.0769 162.56V160.24ZM79.6369 158.76H99.5569V163H79.6369V158.76ZM114.355 195.879L115.781 185.078H121.172L118.301 195.879H114.355ZM154.108 156.48H159.468V193.52H154.108V156.48ZM158.068 170.64H164.588V175H158.068V170.64ZM144.388 160.32H149.588C149.588 171.44 145.348 180.96 133.028 187.16L130.068 183.12C139.788 178.08 144.388 171.28 144.388 161.24V160.32ZM132.108 160.32H147.108V164.6H132.108V160.32ZM192.625 156.48H197.985V193.64H192.625V156.48ZM178.025 159.08C183.625 159.08 187.745 164.2 187.745 172.28C187.745 180.44 183.625 185.56 178.025 185.56C172.425 185.56 168.305 180.44 168.305 172.28C168.305 164.2 172.425 159.08 178.025 159.08ZM178.025 163.92C175.265 163.92 173.385 166.84 173.385 172.28C173.385 177.8 175.265 180.76 178.025 180.76C180.785 180.76 182.625 177.8 182.625 172.28C182.625 166.84 180.785 163.92 178.025 163.92ZM207.942 173.6H233.982V177.84H207.942V173.6ZM204.062 184.76H237.582V189.12H204.062V184.76ZM207.942 159.56H233.702V163.88H213.222V175.36H207.942V159.56ZM275.508 156.52H280.548V193.56H275.508V156.52ZM270.548 170.76H276.708V175.04H270.548V170.76ZM267.228 157.16H272.148V191.8H267.228V157.16ZM249.788 180.84H252.388C256.948 180.84 260.748 180.68 265.148 179.88L265.548 184.2C261.068 185.08 257.148 185.2 252.388 185.2H249.788V180.84ZM249.788 160.8H263.468V165.08H255.068V182.92H249.788V160.8ZM285.585 185.16H319.105V189.48H285.585V185.16ZM299.625 178.16H304.945V186.92H299.625V178.16ZM289.345 158.92H315.345V171.24H294.705V177.48H289.425V167.08H310.065V163.12H289.345V158.92ZM289.425 175.36H316.185V179.64H289.425V175.36ZM44.52 218.88H72.12V223.08H44.52V218.88ZM44.8 229.36H71.84V233.52H44.8V229.36ZM49.24 220.52H54.56V231.52H49.24V220.52ZM62.08 220.52H67.4V231.52H62.08V220.52ZM41.6 236.88H75.08V241.08H41.6V236.88ZM55.64 232.16H60.96V239.36H55.64V232.16ZM45.64 249.68H71.32V253.92H45.64V249.68ZM45.64 243.44H50.96V251.2H45.64V243.44ZM79.9569 221.2H95.9169V225.4H79.9569V221.2ZM84.7169 231.8H89.9569V244.36H84.7169V231.8ZM93.7969 221.2H99.0369V224.2C99.0369 227.8 99.0369 232.28 98.0369 238.44L92.8369 237.96C93.7969 232.04 93.7969 227.76 93.7969 224.2V221.2ZM102.197 217.52H107.517V254.56H102.197V217.52ZM105.957 232.4H112.477V236.8H105.957V232.4ZM78.5569 247.08L78.0769 242.8C84.5969 242.8 93.2369 242.68 100.517 241.76L100.797 245.64C93.3169 246.92 84.9969 247.08 78.5569 247.08ZM146.963 217.52H152.283V239.84H146.963V217.52ZM150.803 226.64H157.203V231H150.803V226.64ZM128.203 241.44H152.283V254.16H128.203V241.44ZM147.083 245.64H133.443V249.96H147.083V245.64ZM123.123 220.84H144.923V225.04H123.123V220.84ZM134.043 226.12C139.403 226.12 143.123 228.84 143.123 232.8C143.123 236.8 139.403 239.44 134.043 239.44C128.643 239.44 124.923 236.8 124.923 232.8C124.923 228.84 128.643 226.12 134.043 226.12ZM134.043 230.08C131.643 230.08 130.043 231 130.043 232.8C130.043 234.6 131.643 235.56 134.043 235.56C136.403 235.56 138.043 234.6 138.043 232.8C138.043 231 136.403 230.08 134.043 230.08ZM131.363 217.28H136.683V223.12H131.363V217.28ZM164.44 221.72H168.92C168.92 231.12 168.04 239.4 163.44 246.76L159.36 244.56C163.68 237.76 164.44 231.32 164.44 222.16V221.72ZM160.56 221.72H167.28V226H160.56V221.72ZM172.72 221.72H177.2C177.2 231.4 176.64 240.64 171.68 248.56L167.6 246.32C172.32 238.96 172.72 231.44 172.72 222.2V221.72ZM170.04 221.72H175.72V226H170.04V221.72ZM187 217.52H192.08V254.56H187V217.52ZM175.4 231.4H180.64V235.68H175.4V231.4ZM179.84 218.32H184.8V252.92H179.84V218.32ZM218.727 236.8H224.047V242.68H218.727V236.8ZM221.407 218.04C229.567 218.04 234.807 220.72 234.807 225.2C234.807 229.64 229.567 232.28 221.407 232.28C213.247 232.28 208.007 229.64 208.007 225.2C208.007 220.72 213.247 218.04 221.407 218.04ZM221.407 222.08C216.327 222.08 213.487 223.12 213.487 225.2C213.487 227.24 216.327 228.24 221.407 228.24C226.447 228.24 229.327 227.24 229.327 225.2C229.327 223.12 226.447 222.08 221.407 222.08ZM208.527 241.52H234.127V254.16H208.527V241.52ZM228.927 245.72H213.767V249.96H228.927V245.72ZM204.647 234.16H238.127V238.4H204.647V234.16ZM250.444 221.32H254.844V223.64C254.844 230.64 251.444 236.96 244.324 239.24L241.604 235.12C247.764 233.12 250.444 228.28 250.444 223.64V221.32ZM251.524 221.32H255.884V223.64C255.884 228.04 258.524 232.56 264.564 234.48L261.844 238.6C254.884 236.4 251.524 230.32 251.524 223.64V221.32ZM266.884 217.52H272.244V239.84H266.884V217.52ZM246.964 241.48H272.244V254.56H266.884V245.72H246.964V241.48ZM243.004 219.68H263.164V223.88H243.004V219.68ZM303.641 217.48H309.001V254.64H303.641V217.48ZM289.041 220.08C294.641 220.08 298.761 225.2 298.761 233.28C298.761 241.44 294.641 246.56 289.041 246.56C283.441 246.56 279.321 241.44 279.321 233.28C279.321 225.2 283.441 220.08 289.041 220.08ZM289.041 224.92C286.281 224.92 284.401 227.84 284.401 233.28C284.401 238.8 286.281 241.76 289.041 241.76C291.801 241.76 293.641 238.8 293.641 233.28C293.641 227.84 291.801 224.92 289.041 224.92ZM340.558 217.52H345.918V254.56H340.558V217.52ZM329.638 221.36H334.918C334.918 232.68 331.078 241.96 317.918 248.32L315.158 244.08C325.798 238.96 329.638 232.24 329.638 222.32V221.36ZM317.118 221.36H332.158V225.56H317.118V221.36Z" fill="white"/>
<path d="M45.46 278.293H47.28C47.28 282.297 46.328 285.629 41.498 288.079L40.504 286.665C44.536 284.635 45.46 282.157 45.46 278.517V278.293ZM41.302 278.293H46.566V279.763H41.302V278.293ZM45.502 281.471V282.899L40.854 283.347L40.63 281.751L45.502 281.471ZM48.848 277.033H50.724V289.997H48.848V277.033ZM50.234 281.989H52.516V283.515H50.234V281.989ZM54.8109 283.025H63.9249V284.509H54.8109V283.025ZM53.4529 286.931H65.1849V288.457H53.4529V286.931ZM54.8109 278.111H63.8269V279.623H56.6589V283.641H54.8109V278.111ZM67.7738 280.547H76.7618V282.017H67.7738V280.547ZM66.3178 283.361H78.0638V284.845H66.3178V283.361ZM67.7738 277.509H69.6218V281.275H67.7738V277.509ZM67.6478 288.247H76.8318V289.731H67.6478V288.247ZM67.6478 285.881H69.5098V288.639H67.6478V285.881ZM92.0881 277.047H93.8521V286.665H92.0881V277.047ZM90.5201 280.729H92.5781V282.227H90.5201V280.729ZM89.3161 277.285H91.0521V286.413H89.3161V277.285ZM85.1301 288.303H94.1881V289.787H85.1301V288.303ZM85.1301 285.769H86.9921V288.863H85.1301V285.769ZM83.3241 283.445H84.2201C86.0821 283.445 87.2861 283.403 88.7141 283.137L88.8681 284.607C87.3981 284.873 86.1381 284.915 84.2201 284.915H83.3241V283.445ZM83.3101 278.097H88.2241V282.143H85.1301V284.271H83.3241V280.785H86.4321V279.553H83.3101V278.097ZM96.385 282.661H97.393C99.927 282.661 101.257 282.605 102.769 282.297L102.937 283.767C101.411 284.089 99.997 284.159 97.393 284.159H96.385V282.661ZM96.385 277.761H102.209V279.231H98.219V283.179H96.385V277.761ZM104.673 277.047H106.535V284.537H104.673V277.047ZM101.607 280.043H105.149V281.527H101.607V280.043ZM97.897 285.083H106.535V289.871H97.897V285.083ZM104.715 286.539H99.731V288.401H104.715V286.539ZM114.43 277.691C117.16 277.691 119.274 279.189 119.274 281.443C119.274 283.711 117.16 285.195 114.43 285.195C111.7 285.195 109.586 283.711 109.586 281.443C109.586 279.189 111.7 277.691 114.43 277.691ZM114.43 279.203C112.666 279.203 111.406 280.043 111.406 281.443C111.406 282.829 112.666 283.669 114.43 283.669C116.194 283.669 117.454 282.829 117.454 281.443C117.454 280.043 116.194 279.203 114.43 279.203ZM108.578 286.931H120.31V288.457H108.578V286.931ZM121.457 287.071H133.189V288.583H121.457V287.071ZM126.371 284.621H128.233V287.687H126.371V284.621ZM122.773 277.887H131.873V282.199H124.649V284.383H122.801V280.743H130.025V279.357H122.773V277.887ZM122.801 283.641H132.167V285.139H122.801V283.641ZM147.605 281.947H149.887V283.473H147.605V281.947ZM146.219 277.033H148.095V289.997H146.219V277.033ZM138.323 278.279H140.185V286.329H138.323V278.279ZM138.323 285.293H139.443C141.291 285.293 143.293 285.167 145.379 284.747L145.575 286.273C143.433 286.721 141.347 286.833 139.443 286.833H138.323V285.293ZM151.314 285.573H152.406C154.59 285.573 156.256 285.545 158.188 285.237L158.356 286.721C156.396 287.029 154.632 287.085 152.406 287.085H151.314V285.573ZM151.314 278.125H157.404V279.637H153.19V286.063H151.314V278.125ZM152.742 281.723H157.222V283.179H152.742V281.723ZM159.098 277.047H160.974V290.011H159.098V277.047ZM160.554 281.961H162.85V283.501H160.554V281.961ZM172.033 277.047H173.895V283.865H172.033V277.047ZM173.391 279.693H175.617V281.205H173.391V279.693ZM164.207 277.593H166.069V282.899H164.207V277.593ZM164.207 281.961H165.299C167.063 281.961 168.981 281.849 171.025 281.443L171.235 282.941C169.121 283.361 167.133 283.487 165.299 283.487H164.207V281.961ZM165.397 284.467H167.245V285.755H172.047V284.467H173.895V289.871H165.397V284.467ZM167.245 287.197V288.401H172.047V287.197H167.245ZM185.542 277.047H187.404V290.011H185.542V277.047ZM177.254 278.279H179.102V286.329H177.254V278.279ZM177.254 285.237H178.402C180.292 285.237 182.392 285.097 184.534 284.677L184.744 286.217C182.518 286.679 180.376 286.819 178.402 286.819H177.254V285.237ZM197.735 277.033H199.611V290.039H197.735V277.033ZM199.191 281.835H201.487V283.361H199.191V281.835ZM189.951 285.377H191.043C193.227 285.377 194.949 285.307 196.853 284.971L197.035 286.511C195.075 286.861 193.297 286.917 191.043 286.917H189.951V285.377ZM189.951 278.237H195.999V279.735H191.799V286.119H189.951V278.237ZM204.199 288.936C203.853 288.936 203.566 288.822 203.338 288.594C203.11 288.366 202.996 288.083 202.996 287.746C202.996 287.409 203.11 287.129 203.338 286.905C203.566 286.677 203.853 286.563 204.199 286.563C204.555 286.563 204.844 286.677 205.067 286.905C205.291 287.129 205.402 287.409 205.402 287.746C205.402 288.083 205.291 288.366 205.067 288.594C204.844 288.822 204.555 288.936 204.199 288.936Z" fill="white"/>
<g opacity="0.75">
<path d="M145.821 417.463L140.902 391.238L167.127 386.318" stroke="white" stroke-width="5.8001" stroke-linecap="round" stroke-linejoin="round"/>
</g>
<path d="M117.376 397.601L112.457 371.375L138.682 366.456" stroke="white" stroke-width="5.8001" stroke-linecap="round" stroke-linejoin="round"/>
<g opacity="0.44">
<path d="M176.866 439.449L171.946 413.223L198.172 408.304" stroke="white" stroke-width="5.8001" stroke-linecap="round" stroke-linejoin="round"/>
</g>
<path fill-rule="evenodd" clip-rule="evenodd" d="M189.016 795.71C191.355 799.875 194.424 802.987 198.24 804.861C222.647 816.848 268.393 773.707 300.419 708.503C325.927 656.568 335.036 606.3 325.354 581.934C328.815 552.683 324.164 531.193 310.614 524.537C283.878 511.406 232.618 560.998 196.123 635.305C159.627 709.611 151.715 780.493 178.451 793.625C181.645 795.194 185.189 795.867 189.016 795.71Z" fill="url(#paint1_linear_613_2879)"/>
<path d="M288.221 534.766L261.632 582.607" stroke="url(#paint2_linear_613_2879)" stroke-width="8" stroke-linecap="round"/>
<path d="M313.488 536.803L288.698 585.909" stroke="url(#paint3_linear_613_2879)" stroke-width="8" stroke-linecap="round"/>
<g filter="url(#filter0_d_613_2879)">
<path fill-rule="evenodd" clip-rule="evenodd" d="M199.706 443.234C201.184 439.999 204.338 437.522 208.517 437.406L239.812 436.532C251.012 436.22 261.83 440.619 269.633 448.66L336.722 517.791C340.643 521.832 340.25 527.671 337.092 531.338L335.486 533.71L331.678 539.322L324.005 535.078L300.409 536.385C288.84 537.027 277.561 532.619 269.491 524.304L201.62 454.366C200.528 453.241 199.772 451.98 199.315 450.666L194.953 451.381L199.706 443.234Z" fill="#393939"/>
<path d="M196.534 463.245C190.5 457.027 194.69 446.6 203.349 446.287L234.154 445.172C245.466 444.763 256.422 449.165 264.306 457.289L331.085 526.101C337.119 532.319 332.929 542.745 324.27 543.059L293.465 544.174C282.153 544.583 271.197 540.18 263.313 532.057L196.534 463.245Z" fill="black"/>
</g>
<path fill-rule="evenodd" clip-rule="evenodd" d="M171.847 611.195L183.875 545.273C184.603 541.283 179.76 538.782 175.718 541.061L125.473 569.385C116.342 567.682 106.334 567.745 95.9028 569.873C68.2013 575.524 44.7386 594.268 33.3526 617.135C21.4482 637.056 23.1267 671.893 39.5118 705.042C43.3802 712.869 47.7974 720.053 52.5842 726.481C48.953 746.739 51.7402 769.066 61.9126 789.647C84.4573 835.258 134.739 855.017 174.221 833.78C178.07 831.71 181.674 829.326 185.024 826.668C194.594 829.445 203.837 828.995 211.8 824.711C236.481 811.435 239.532 766.366 218.615 724.047C205.679 697.877 186.607 678.887 168.098 671.344C172.7 661.801 175.612 650.399 176.013 638.446C176.357 628.207 174.812 618.895 171.847 611.195Z" fill="white"/>
<ellipse cx="9.64184" cy="9.91863" rx="9.64184" ry="9.91863" transform="matrix(0.872779 -0.46947 0.446829 0.904 76.0813 594.176)" fill="black"/>
<ellipse cx="109.4" cy="810.378" rx="81.4097" ry="113.333" transform="rotate(-8.761 109.4 810.378)" fill="white"/>
<ellipse cx="158.875" cy="790.218" rx="81.4097" ry="113.333" transform="rotate(-8.761 158.875 790.218)" fill="white"/>
<ellipse cx="64.72" cy="838.438" rx="136.16" ry="63.9727" transform="rotate(-77.5994 64.72 838.438)" fill="url(#paint4_linear_613_2879)"/>
<path d="M59.1724 897.519L82.1548 847.846" stroke="url(#paint5_linear_613_2879)" stroke-width="8" stroke-linecap="round"/>
<path d="M33.8238 897.356L54.9193 846.553" stroke="url(#paint6_linear_613_2879)" stroke-width="8" stroke-linecap="round"/>
</g>
<defs>
<filter id="filter0_d_613_2879" x="189.693" y="436.517" width="153.868" height="115.684" filterUnits="userSpaceOnUse" color-interpolation-filters="sRGB">
<feFlood flood-opacity="0" result="BackgroundImageFix"/>
<feColorMatrix in="SourceAlpha" type="matrix" values="0 0 0 0 0 0 0 0 0 0 0 0 0 0 0 0 0 0 127 0" result="hardAlpha"/>
<feOffset dy="4"/>
<feGaussianBlur stdDeviation="2"/>
<feComposite in2="hardAlpha" operator="out"/>
<feColorMatrix type="matrix" values="0 0 0 0 0 0 0 0 0 0 0 0 0 0 0 0 0 0 0.25 0"/>
<feBlend mode="normal" in2="BackgroundImageFix" result="effect1_dropShadow_613_2879"/>
<feBlend mode="normal" in="SourceGraphic" in2="effect1_dropShadow_613_2879" result="shape"/>
</filter>
<linearGradient id="paint0_linear_613_2879" x1="238.099" y1="368.243" x2="280.935" y2="701.978" gradientUnits="userSpaceOnUse">
<stop stop-color="#53E7FB"/>
<stop offset="0.65" stop-color="#96F0FC" stop-opacity="0.649"/>
<stop offset="1" stop-color="white" stop-opacity="0.1"/>
</linearGradient>
<linearGradient id="paint1_linear_613_2879" x1="333.954" y1="515.635" x2="216.433" y2="773.814" gradientUnits="userSpaceOnUse">
<stop stop-color="#D9D9D9"/>
<stop offset="0.775" stop-color="#737373"/>
</linearGradient>
<linearGradient id="paint2_linear_613_2879" x1="271.634" y1="537.323" x2="278.219" y2="580.051" gradientUnits="userSpaceOnUse">
<stop stop-color="#919191"/>
<stop offset="1" stop-color="#2B2B2B" stop-opacity="0"/>
</linearGradient>
<linearGradient id="paint3_linear_613_2879" x1="297.034" y1="540.129" x2="305.596" y2="582.494" gradientUnits="userSpaceOnUse">
<stop stop-color="#919191"/>
<stop offset="1" stop-color="#2B2B2B" stop-opacity="0"/>
</linearGradient>
<linearGradient id="paint4_linear_613_2879" x1="200.88" y1="838.438" x2="-71.4399" y2="838.438" gradientUnits="userSpaceOnUse">
<stop stop-color="#D9D9D9"/>
<stop offset="1" stop-color="#737373"/>
</linearGradient>
<linearGradient id="paint5_linear_613_2879" x1="75.5251" y1="893.745" x2="65.8022" y2="851.62" gradientUnits="userSpaceOnUse">
<stop stop-color="#919191"/>
<stop offset="1" stop-color="#2B2B2B" stop-opacity="0"/>
</linearGradient>
<linearGradient id="paint6_linear_613_2879" x1="49.9872" y1="892.825" x2="38.3192" y2="851.207" gradientUnits="userSpaceOnUse">
<stop stop-color="#919191"/>
<stop offset="1" stop-color="#2B2B2B" stop-opacity="0"/>
</linearGradient>
<clipPath id="clip0_613_2879">
<rect width="393" height="852" rx="40" fill="white"/>
</clipPath>
</defs>
</svg>
