<svg width="393" height="852" viewBox="0 0 393 852" fill="none" xmlns="http://www.w3.org/2000/svg">
<g clip-path="url(#clip0_613_2844)">
<rect width="393" height="852" rx="40" fill="#171717"/>
<rect x="126" y="838.651" width="141" height="5" rx="2.5" fill="black"/>
<rect x="-151.516" y="542.115" width="197.258" height="265.57" rx="13" transform="rotate(-22.8154 -151.516 542.115)" fill="#53E7FB"/>
<rect x="227.719" y="382.579" width="197.258" height="265.57" rx="13" transform="rotate(-22.8154 227.719 382.579)" fill="#53E7FB"/>
<path d="M284.972 423.96C281.173 425.558 277.538 426.134 274.065 425.687C270.611 425.233 267.496 423.821 264.719 421.451C261.952 419.055 259.69 415.769 257.933 411.592L257.922 411.565C256.157 407.37 255.403 403.461 255.658 399.836C255.905 396.193 257.078 392.988 259.176 390.219C261.267 387.432 264.212 385.24 268.011 383.642C271.161 382.317 274.227 381.747 277.209 381.934C280.19 382.121 282.879 382.971 285.274 384.485C287.662 385.98 289.565 388.061 290.984 390.728L291.113 390.96L283.173 394.3L282.872 393.886C281.96 392.574 280.885 391.554 279.646 390.825C278.407 390.096 277.045 389.705 275.561 389.651C274.086 389.572 272.539 389.874 270.919 390.555C268.831 391.434 267.245 392.726 266.161 394.432C265.078 396.138 264.53 398.159 264.517 400.495C264.514 402.806 265.084 405.321 266.228 408.039L266.239 408.066C267.391 410.803 268.801 412.996 270.469 414.646C272.149 416.27 273.98 417.301 275.965 417.737C277.96 418.148 279.993 417.918 282.063 417.047C283.63 416.388 284.904 415.513 285.886 414.422C286.885 413.323 287.572 412.06 287.946 410.631C288.312 409.184 288.341 407.615 288.031 405.923L287.972 405.63L295.911 402.29L296.009 402.599C296.916 405.459 297.064 408.279 296.453 411.057C295.86 413.828 294.587 416.345 292.636 418.606C290.677 420.85 288.122 422.635 284.972 423.96Z" fill="#2C2C2E"/>
<rect x="-45.3848" y="794.401" width="197.258" height="265.57" rx="13" transform="rotate(-22.8154 -45.3848 794.401)" fill="white"/>
<path d="M3.56368 838.481L-10.0005 806.238L-21.2614 810.975L-24.0901 804.251L6.61419 791.334L9.44289 798.058L-1.84505 802.807L11.7191 835.05L3.56368 838.481Z" fill="black"/>
<rect x="333.85" y="634.865" width="197.258" height="265.57" rx="13" transform="rotate(-22.8154 333.85 634.865)" fill="white"/>
<path d="M382.798 678.945L369.234 646.701L357.973 651.439L355.144 644.715L385.849 631.798L388.677 638.522L377.389 643.271L390.953 675.514L382.798 678.945Z" fill="black"/>
<rect x="38.1016" y="462.348" width="197.258" height="265.57" rx="13" transform="rotate(-22.8154 38.1016 462.348)" fill="white"/>
<path d="M87.05 506.427L73.4859 474.184L62.2249 478.921L59.3962 472.197L90.1005 459.28L92.9292 466.005L81.6413 470.753L95.2054 502.997L87.05 506.427Z" fill="black"/>
<rect x="144.232" y="714.633" width="197.258" height="265.57" rx="13" transform="rotate(-22.8154 144.232 714.633)" fill="#53E7FB"/>
<path d="M201.485 756.014C197.687 757.612 194.051 758.188 190.579 757.741C187.125 757.287 184.009 755.875 181.232 753.505C178.466 751.109 176.204 747.822 174.447 743.646L174.436 743.619C172.671 739.424 171.916 735.514 172.171 731.89C172.419 728.247 173.592 725.041 175.69 722.273C177.781 719.486 180.726 717.294 184.524 715.696C187.675 714.37 190.741 713.801 193.722 713.988C196.704 714.174 199.392 715.025 201.788 716.538C204.176 718.034 206.079 720.115 207.497 722.782L207.626 723.013L199.687 726.353L199.386 725.94C198.474 724.628 197.399 723.608 196.16 722.879C194.921 722.15 193.559 721.759 192.074 721.705C190.6 721.626 189.053 721.927 187.433 722.609C185.344 723.487 183.758 724.78 182.675 726.486C181.592 728.192 181.043 730.213 181.03 732.549C181.028 734.86 181.598 737.374 182.742 740.093L182.753 740.12C183.904 742.856 185.314 745.049 186.983 746.699C188.662 748.324 190.494 749.354 192.479 749.791C194.474 750.202 196.507 749.971 198.577 749.101C200.143 748.442 201.417 747.567 202.399 746.476C203.399 745.377 204.086 744.113 204.46 742.685C204.826 741.238 204.854 739.669 204.545 737.977L204.485 737.684L212.425 734.344L212.523 734.652C213.429 737.513 213.577 740.332 212.966 743.111C212.373 745.882 211.101 748.398 209.15 750.66C207.191 752.904 204.636 754.688 201.485 756.014Z" fill="#2C2C2E"/>
<path d="M56.1915 97.64H60.8315V100.32C60.8315 108.36 55.1115 115.48 45.5115 117.36L43.2315 112.96C51.5915 111.52 56.1915 105.64 56.1915 100.32V97.64ZM57.2715 97.64H61.8715V100.32C61.8715 105.76 66.4315 111.52 74.8315 112.96L72.5515 117.36C62.9515 115.48 57.2715 108.48 57.2715 100.32V97.64ZM42.4715 123.72H75.9915V128.04H42.4715V123.72ZM83.1884 114.6H109.228V118.76H83.1884V114.6ZM79.2684 124H112.788V128.32H79.2684V124ZM83.1884 98.2H108.908V102.48H88.5884V115.76H83.1884V98.2ZM86.9484 106.36H108.068V110.48H86.9484V106.36ZM117.025 119.56H119.665C124.145 119.56 128.105 119.44 132.705 118.64L133.145 122.92C128.385 123.8 124.305 123.92 119.665 123.92H117.025V119.56ZM116.985 99.16H130.065V113.32H122.185V121.24H117.025V109.16H124.945V103.36H116.985V99.16ZM142.785 95.52H147.825V132.56H142.785V95.52ZM131.585 108.12H137.345V112.48H131.585V108.12ZM135.265 96.2H140.185V130.8H135.265V96.2ZM161.862 101.76H166.222V103.12C166.222 109.64 162.822 115.48 155.622 117.48L153.142 113.36C159.222 111.64 161.862 107.32 161.862 103.12V101.76ZM162.862 101.76H167.182V103.12C167.182 107 169.902 111 175.942 112.56L173.542 116.72C166.342 114.84 162.862 109.32 162.862 103.12V101.76ZM154.382 99.4H174.622V103.56H154.382V99.4ZM161.862 95.6H167.182V101.24H161.862V95.6ZM178.262 95.56H183.622V117.84H178.262V95.56ZM171.062 118.48C178.902 118.48 183.782 121.08 183.782 125.52C183.782 130 178.902 132.56 171.062 132.56C163.222 132.56 158.422 130 158.422 125.52C158.422 121.08 163.222 118.48 171.062 118.48ZM171.062 122.56C166.262 122.56 163.742 123.52 163.742 125.52C163.742 127.56 166.262 128.52 171.062 128.52C175.902 128.52 178.462 127.56 178.462 125.52C178.462 123.52 175.902 122.56 171.062 122.56ZM188.781 134.879L190.207 124.078H195.597L192.726 134.879H188.781ZM45.8715 159.92H69.3515V164.12H45.8715V159.92ZM42.4715 184.4H75.9515V188.72H42.4715V184.4ZM66.5515 159.92H71.8315V164.32C71.8315 169.52 71.8315 174.56 70.5115 182.16L65.1915 181.72C66.5515 174.6 66.5515 169.32 66.5515 164.32V159.92ZM104.748 156.48H110.068V193.64H104.748V156.48ZM81.2284 180.68H84.5084C91.0684 180.68 96.3084 180.44 102.188 179.44L102.708 183.72C96.7084 184.8 91.2684 185 84.5084 185H81.2284V180.68ZM81.1884 159.64H98.6684V173.96H86.6284V182.28H81.2284V169.76H93.2284V163.88H81.1884V159.64ZM119.465 159.64H142.945V163.92H119.465V159.64ZM116.065 184.8H149.545V189.12H116.065V184.8ZM127.905 172.08H133.225V186.92H127.905V172.08ZM141.025 159.64H146.345V163.2C146.345 167.84 146.345 173.04 144.865 180.96L139.545 180.36C141.025 173 141.025 167.64 141.025 163.2V159.64ZM258.106 156.52H263.386V193.56H258.106V156.52ZM262.186 170.96H268.746V175.4H262.186V170.96ZM234.186 162H255.746V166.24H234.186V162ZM245.026 168.32C250.426 168.32 254.426 172 254.426 177.16C254.426 182.32 250.426 186 245.026 186C239.626 186 235.626 182.32 235.626 177.16C235.626 172 239.626 168.32 245.026 168.32ZM245.026 172.64C242.506 172.64 240.706 174.32 240.706 177.16C240.706 180 242.506 181.68 245.026 181.68C247.546 181.68 249.346 180 249.346 177.16C249.346 174.32 247.546 172.64 245.026 172.64ZM242.346 157.12H247.666V163.6H242.346V157.12ZM274.582 159.64H298.062V163.92H274.582V159.64ZM271.182 184.8H304.662V189.12H271.182V184.8ZM283.022 172.08H288.342V186.92H283.022V172.08ZM296.142 159.64H301.462V163.2C301.462 167.84 301.462 173.04 299.982 180.96L294.662 180.36C296.142 173 296.142 167.64 296.142 163.2V159.64ZM67.8715 217.56H73.2315V238.04H67.8715V217.56ZM51.1115 218.8H55.5115V222.36C55.5115 229.2 52.0715 235.36 44.8315 237.56L42.2315 233.4C48.4715 231.52 51.1115 226.88 51.1115 222.36V218.8ZM52.1915 218.8H56.5515V222.36C56.5515 226.76 59.1515 231.04 65.1915 232.76L62.6315 236.96C55.5115 234.84 52.1915 229.08 52.1915 222.36V218.8ZM48.1915 239.72H73.3915V243.92H48.1915V239.72ZM47.8315 249.96H73.7515V254.16H47.8315V249.96ZM52.5515 241.28H57.7515V252.44H52.5515V241.28ZM63.8315 241.28H69.0715V252.44H63.8315V241.28ZM79.2284 236.4H112.708V240.64H79.2284V236.4ZM83.2684 249.68H108.948V253.92H83.2684V249.68ZM83.2684 243.12H88.5884V251.04H83.2684V243.12ZM95.9884 218.6C104.028 218.6 109.388 221.52 109.388 226.24C109.388 230.96 104.028 233.88 95.9884 233.88C87.9084 233.88 82.5884 230.96 82.5884 226.24C82.5884 221.52 87.9084 218.6 95.9884 218.6ZM95.9884 222.84C90.9884 222.84 88.0684 224 88.0684 226.24C88.0684 228.52 90.9884 229.64 95.9884 229.64C100.988 229.64 103.908 228.52 103.908 226.24C103.908 224 100.988 222.84 95.9884 222.84ZM151.595 231.52H158.115V235.88H151.595V231.52ZM147.635 217.48H152.995V254.52H147.635V217.48ZM125.075 221.04H130.395V244.04H125.075V221.04ZM125.075 241.08H128.275C133.555 241.08 139.275 240.72 145.235 239.52L145.795 243.88C139.675 245.16 133.715 245.48 128.275 245.48H125.075V241.08ZM161.832 220.56H179.472V238.44H161.832V220.56ZM174.232 224.76H167.072V234.24H174.232V224.76ZM184.592 217.52H189.912V244.52H184.592V217.52ZM188.392 228.2H194.832V232.56H188.392V228.2ZM166.032 249.68H191.232V253.92H166.032V249.68ZM166.032 241.88H171.352V251.8H166.032V241.88ZM209.469 219.96C215.309 219.96 219.669 223.76 219.669 229.08C219.669 234.44 215.309 238.24 209.469 238.24C203.669 238.24 199.229 234.44 199.229 229.08C199.229 223.76 203.669 219.96 209.469 219.96ZM209.469 224.52C206.629 224.52 204.469 226.2 204.469 229.08C204.469 232 206.629 233.68 209.469 233.68C212.309 233.68 214.469 232 214.469 229.08C214.469 226.2 212.309 224.52 209.469 224.52ZM223.149 217.48H228.469V254.64H223.149V217.48ZM198.349 247.12L197.709 242.84C204.229 242.84 213.309 242.76 221.109 241.6L221.509 245.44C213.469 247.04 204.749 247.12 198.349 247.12ZM256.275 221.08H261.475C261.475 232.52 258.755 242.04 244.955 249.04L242.115 245C253.635 239.2 256.275 232.12 256.275 221.72V221.08ZM244.395 221.08H259.435V225.28H244.395V221.08ZM256.395 230.16V234.24L243.115 235.52L242.475 230.96L256.395 230.16ZM265.955 217.48H271.315V254.52H265.955V217.48ZM269.915 231.64H276.435V236H269.915V231.64ZM282.992 234.6H309.032V238.84H282.992V234.6ZM279.112 245.76H312.632V250.12H279.112V245.76ZM282.992 220.56H308.752V224.88H288.272V236.36H282.992V220.56Z" fill="white"/>
<path d="M186.272 156.52H191.632V193.56H186.272V156.52ZM175.352 160.36H180.632C180.632 171.68 176.792 180.96 163.632 187.32L160.872 183.08C171.512 177.96 175.352 171.24 175.352 161.32V160.36ZM162.832 160.36H177.872V164.56H162.832V160.36ZM215.749 165.48H224.629V169.76H215.749V165.48ZM203.309 180.16H228.549V193.6H223.229V184.32H203.309V180.16ZM223.229 156.52H228.549V178.44H223.229V156.52ZM207.789 158.44C213.309 158.44 217.549 162.28 217.549 167.6C217.549 172.96 213.309 176.8 207.789 176.8C202.229 176.8 197.989 172.96 197.989 167.6C197.989 162.28 202.229 158.44 207.789 158.44ZM207.789 162.96C205.109 162.96 203.069 164.68 203.069 167.6C203.069 170.56 205.109 172.28 207.789 172.28C210.429 172.28 212.469 170.56 212.469 167.6C212.469 164.68 210.429 162.96 207.789 162.96Z" fill="#53E7FB"/>
<path d="M50.3235 279.282H52.1995V292.246H50.3235V279.282ZM46.5015 280.626H48.3495C48.3495 284.588 47.0055 287.836 42.3995 290.062L41.4335 288.578C45.1575 286.786 46.5015 284.434 46.5015 280.962V280.626ZM42.1195 280.626H47.3835V282.096H42.1195V280.626ZM60.6404 282.418H63.7484V283.916H60.6404V282.418ZM56.2864 287.556H65.1205V292.26H63.2584V289.012H56.2864V287.556ZM63.2584 279.282H65.1205V286.954H63.2584V279.282ZM57.8544 279.954C59.7864 279.954 61.2704 281.298 61.2704 283.16C61.2704 285.036 59.7864 286.38 57.8544 286.38C55.9084 286.38 54.4244 285.036 54.4244 283.16C54.4244 281.298 55.9084 279.954 57.8544 279.954ZM57.8544 281.536C56.9164 281.536 56.2024 282.138 56.2024 283.16C56.2024 284.196 56.9164 284.798 57.8544 284.798C58.7784 284.798 59.4924 284.196 59.4924 283.16C59.4924 282.138 58.7784 281.536 57.8544 281.536ZM75.4654 279.282H77.3134V292.246H75.4654V279.282ZM76.8934 284.336H79.1894V285.89H76.8934V284.336ZM67.0934 281.2H74.6394V282.684H67.0934V281.2ZM70.8874 283.412C72.7774 283.412 74.1774 284.7 74.1774 286.506C74.1774 288.312 72.7774 289.6 70.8874 289.6C68.9974 289.6 67.5974 288.312 67.5974 286.506C67.5974 284.7 68.9974 283.412 70.8874 283.412ZM70.8874 284.924C70.0054 284.924 69.3754 285.512 69.3754 286.506C69.3754 287.5 70.0054 288.088 70.8874 288.088C71.7694 288.088 72.3994 287.5 72.3994 286.506C72.3994 285.512 71.7694 284.924 70.8874 284.924ZM69.9494 279.492H71.8114V281.76H69.9494V279.492ZM81.2323 280.374H89.4503V281.872H81.2323V280.374ZM80.0423 289.18H91.7603V290.692H80.0423V289.18ZM84.1863 284.728H86.0483V289.922H84.1863V284.728ZM88.7783 280.374H90.6403V281.62C90.6403 283.244 90.6403 285.064 90.1223 287.836L88.2603 287.626C88.7783 285.05 88.7783 283.174 88.7783 281.62V280.374ZM105.421 279.296H107.297V286.464H105.421V279.296ZM99.5545 279.73H101.095V280.976C101.095 283.37 99.8905 285.526 97.3565 286.296L96.4465 284.84C98.6305 284.182 99.5545 282.558 99.5545 280.976V279.73ZM99.9325 279.73H101.459V280.976C101.459 282.516 102.369 284.014 104.483 284.616L103.587 286.086C101.095 285.344 99.9325 283.328 99.9325 280.976V279.73ZM98.5325 287.052H107.353V288.522H98.5325V287.052ZM98.4065 290.636H107.479V292.106H98.4065V290.636ZM100.059 287.598H101.879V291.504H100.059V287.598ZM104.007 287.598H105.841V291.504H104.007V287.598ZM109.395 285.89H121.113V287.374H109.395V285.89ZM110.809 290.538H119.797V292.022H110.809V290.538ZM110.809 288.242H112.671V291.014H110.809V288.242ZM115.261 279.66C118.075 279.66 119.951 280.682 119.951 282.334C119.951 283.986 118.075 285.008 115.261 285.008C112.433 285.008 110.571 283.986 110.571 282.334C110.571 280.682 112.433 279.66 115.261 279.66ZM115.261 281.144C113.511 281.144 112.489 281.55 112.489 282.334C112.489 283.132 113.511 283.524 115.261 283.524C117.011 283.524 118.033 283.132 118.033 282.334C118.033 281.55 117.011 281.144 115.261 281.144ZM125.884 286.744H137.63V288.214H125.884V286.744ZM130.784 287.486H132.632V292.246H130.784V287.486ZM127.228 279.772H129.076V281.242H134.396V279.772H136.244V285.512H127.228V279.772ZM129.076 282.698V284.028H134.396V282.698H129.076ZM138.763 285.918H150.495V287.388H138.763V285.918ZM143.845 286.702H145.721V289.432H143.845V286.702ZM140.121 290.538H149.207V292.022H140.121V290.538ZM140.121 288.452H141.969V291.168H140.121V288.452ZM140.261 279.688H142.095V281.018H147.149V279.688H148.997V285.022H140.261V279.688ZM142.095 282.418V283.566H147.149V282.418H142.095ZM157.508 279.464C160.462 279.464 162.198 280.248 162.198 281.676C162.198 283.104 160.462 283.888 157.508 283.888C154.54 283.888 152.818 283.104 152.818 281.676C152.818 280.248 154.54 279.464 157.508 279.464ZM157.508 280.822C155.632 280.822 154.75 281.102 154.75 281.676C154.75 282.278 155.632 282.53 157.508 282.53C159.384 282.53 160.266 282.278 160.266 281.676C160.266 281.102 159.384 280.822 157.508 280.822ZM151.642 284.49H163.36V285.96H151.642V284.49ZM152.986 286.688H161.946V290.02H154.834V291.168H153V288.732H160.112V288.074H152.986V286.688ZM153 290.762H162.282V292.162H153V290.762ZM173.03 280.528H174.85C174.85 284.532 173.898 287.864 169.068 290.314L168.074 288.9C172.106 286.87 173.03 284.392 173.03 280.752V280.528ZM168.872 280.528H174.136V281.998H168.872V280.528ZM173.072 283.706V285.134L168.424 285.582L168.2 283.986L173.072 283.706ZM176.418 279.268H178.294V292.232H176.418V279.268ZM177.804 284.224H180.086V285.75H177.804V284.224ZM182.381 285.26H191.495V286.744H182.381V285.26ZM181.023 289.166H192.755V290.692H181.023V289.166ZM182.381 280.346H191.397V281.858H184.229V285.876H182.381V280.346ZM193.902 289.306H205.634V290.818H193.902V289.306ZM198.816 286.856H200.678V289.922H198.816V286.856ZM195.218 280.122H204.318V284.434H197.094V286.618H195.246V282.978H202.47V281.592H195.218V280.122ZM195.246 285.876H204.612V287.374H195.246V285.876ZM210.754 280.346H216.928V286.604H210.754V280.346ZM215.094 281.816H212.588V285.134H215.094V281.816ZM218.72 279.282H220.582V288.732H218.72V279.282ZM220.05 283.02H222.304V284.546H220.05V283.02ZM212.224 290.538H221.044V292.022H212.224V290.538ZM212.224 287.808H214.086V291.28H212.224V287.808ZM223.269 284.308H235.001V285.778H223.269V284.308ZM224.711 282.152H233.615V283.608H224.711V282.152ZM224.711 279.52H233.503V281.004H226.559V283.412H224.711V279.52ZM224.599 286.506H233.559V289.936H226.447V291.056H224.613V288.62H231.725V287.906H224.599V286.506ZM224.613 290.72H233.895V292.148H224.613V290.72ZM239.69 280.178C241.622 280.178 243.036 281.97 243.036 284.798C243.036 287.654 241.622 289.446 239.69 289.446C237.744 289.446 236.344 287.654 236.344 284.798C236.344 281.97 237.744 280.178 239.69 280.178ZM239.69 281.872C238.752 281.872 238.122 282.894 238.122 284.798C238.122 286.73 238.752 287.766 239.69 287.766C240.642 287.766 241.258 286.73 241.258 284.798C241.258 282.894 240.642 281.872 239.69 281.872ZM245.164 279.268H247.012V292.274H245.164V279.268ZM242.49 283.944H245.948V285.442H242.49V283.944ZM256.094 280.178C258.068 280.178 259.496 281.97 259.496 284.798C259.496 287.654 258.068 289.446 256.094 289.446C254.12 289.446 252.692 287.654 252.692 284.798C252.692 281.97 254.12 280.178 256.094 280.178ZM256.094 281.872C255.128 281.872 254.484 282.894 254.484 284.798C254.484 286.73 255.128 287.766 256.094 287.766C257.06 287.766 257.718 286.73 257.718 284.798C257.718 282.894 257.06 281.872 256.094 281.872ZM260.91 279.282H262.786V292.246H260.91V279.282ZM262.366 284.168H264.662V285.708H262.366V284.168ZM270.401 280.528H272.221C272.221 284.532 271.269 287.864 266.439 290.314L265.445 288.9C269.477 286.87 270.401 284.392 270.401 280.752V280.528ZM266.243 280.528H271.507V281.998H266.243V280.528ZM270.443 283.706V285.134L265.795 285.582L265.571 283.986L270.443 283.706ZM273.789 279.268H275.665V292.232H273.789V279.268ZM275.175 284.224H277.457V285.75H275.175V284.224ZM287.27 279.268H289.146V292.274H287.27V279.268ZM282.16 280.178C284.12 280.178 285.562 281.97 285.562 284.798C285.562 287.654 284.12 289.446 282.16 289.446C280.2 289.446 278.758 287.654 278.758 284.798C278.758 281.97 280.2 280.178 282.16 280.178ZM282.16 281.872C281.194 281.872 280.536 282.894 280.536 284.798C280.536 286.73 281.194 287.766 282.16 287.766C283.126 287.766 283.77 286.73 283.77 284.798C283.77 282.894 283.126 281.872 282.16 281.872ZM291.917 280.066H293.751V281.732H296.369V280.066H298.217V286.226H291.917V280.066ZM293.751 283.174V284.77H296.369V283.174H293.751ZM300.163 279.296H302.039V287.024H300.163V279.296ZM297.643 287.248C300.373 287.248 302.095 288.186 302.095 289.754C302.095 291.336 300.373 292.246 297.643 292.246C294.913 292.246 293.219 291.336 293.219 289.754C293.219 288.186 294.913 287.248 297.643 287.248ZM297.643 288.676C295.963 288.676 295.081 289.026 295.081 289.754C295.081 290.468 295.963 290.832 297.643 290.832C299.337 290.832 300.233 290.468 300.233 289.754C300.233 289.026 299.337 288.676 297.643 288.676Z" fill="white"/>
</g>
<defs>
<clipPath id="clip0_613_2844">
<rect width="393" height="852" rx="40" fill="white"/>
</clipPath>
</defs>
</svg>
