<svg width="82" height="44" viewBox="0 0 82 44" fill="none" xmlns="http://www.w3.org/2000/svg">
<rect x="1.5" y="1.5" width="79" height="41" rx="10.5" fill="black"/>
<rect x="1.5" y="1.5" width="79" height="41" rx="10.5" stroke="white" stroke-width="3"/>
<path d="M34.64 13.24H37.32V31.82H34.64V13.24ZM36.72 20.1H40V22.28H36.72V20.1ZM23.52 25.16H25.08C28.2 25.16 30.66 25.06 33.38 24.58L33.64 26.78C30.84 27.28 28.3 27.36 25.08 27.36H23.52V25.16ZM23.52 14.96H32.16V17.1H26.16V26.22H23.52V14.96ZM49.5784 13.6C53.6584 13.6 56.2784 14.98 56.2784 17.22C56.2784 19.46 53.6584 20.82 49.5784 20.82C45.4984 20.82 42.8784 19.46 42.8784 17.22C42.8784 14.98 45.4984 13.6 49.5784 13.6ZM49.5784 15.66C47.0384 15.66 45.6184 16.16 45.6184 17.22C45.6184 18.26 47.0384 18.78 49.5784 18.78C52.0984 18.78 53.5384 18.26 53.5384 17.22C53.5384 16.16 52.0984 15.66 49.5784 15.66ZM43.1384 25.26H55.9384V31.58H43.1384V25.26ZM53.3384 27.36H45.7584V29.48H53.3384V27.36ZM41.1984 21.88H57.9384V23.98H41.1984V21.88Z" fill="white"/>
</svg>
