<svg width="82" height="44" viewBox="0 0 82 44" fill="none" xmlns="http://www.w3.org/2000/svg">
<rect x="1.5" y="1.5" width="79" height="41" rx="10.5" fill="black"/>
<rect x="1.5" y="1.5" width="79" height="41" rx="10.5" stroke="#53E7FB" stroke-width="3"/>
<path d="M34.72 13.26H37.38V23.62H34.72V13.26ZM36.64 17.32H39.84V19.5H36.64V17.32ZM23.5 20.74H25.04C29.06 20.74 31.06 20.64 33.28 20.18L33.54 22.28C31.28 22.78 29.16 22.9 25.04 22.9H23.5V20.74ZM23.5 14.4H31.72V16.5H26.14V22.08H23.5V14.4ZM25.34 24.5H37.5V26.62H28V30.6H25.34V24.5ZM25.34 29.48H37.84V31.58H25.34V29.48ZM53.9584 13.26H56.6384V31.78H53.9584V13.26ZM48.4984 15.18H51.1384C51.1384 20.84 49.2184 25.48 42.6384 28.66L41.2584 26.54C46.5784 23.98 48.4984 20.62 48.4984 15.66V15.18ZM42.2384 15.18H49.7584V17.28H42.2384V15.18Z" fill="white"/>
</svg>
